<?xml version="1.0" encoding="utf-8"?>

<!DOCTYPE svg PUBLIC "-//W3C//DTD SVG 1.1//EN" "http://www.w3.org/Graphics/SVG/1.1/DTD/svg11.dtd">
<svg version="1.1" id="Layer_1" xmlns="http://www.w3.org/2000/svg" xmlns:xlink="http://www.w3.org/1999/xlink" x="0px" y="0px"
	 viewBox="0 0 1650.328 1648.576" enable-background="new 0 0 1650.328 1648.576" xml:space="preserve">
<g>
	<g>
		<g>
			<path d="M1496.905,683.062c-15.434,6.115-24.499,13.504-33.221,25.766c-29.005,39.518-60.317,17.711-55.646-6.544
				c0.899-4.673,2.274-7.375,4.122-8.107c0.792-0.314,2.135,0.567,4.027,2.644c3.358,3.663,6.734,7.06,11.704,8.139
				c6.933,1.504,17.533-2.63,20.916-10.693c3.41-8.123-0.477-21.384-11.716-25.38c-12.385-4.403-32.802,3.808-39.349,24.47
				c-7.398,23.348,5.79,54.723,25.973,66.427c15.082,8.744,30.847,5.458,41.03-3.307c21.015-18.093,4.263-48.784,36.282-63.016
				L1496.905,683.062z M1516.165,667.468c-4.375,10.243,0.502,21.852,10.25,26.018c9.87,4.212,21.698-0.394,26.078-10.389
				c4.399-10.045-0.348-21.707-10.349-25.979C1532.086,652.823,1520.481,657.357,1516.165,667.468z"/>
		</g>
		<g>
			<path d="M1480.144,611.26c15.435-6.115,27.1-6.938,41.853-3.976c48.199,8.932,56.081-28.402,36.067-42.878
				c-3.855-2.789-6.708-3.816-8.556-3.084c-0.792,0.314-1.168,1.875-1.123,4.685c0.062,4.969-0.072,9.756-2.954,13.947
				c-4.022,5.844-14.578,10.091-22.564,6.533c-8.048-3.584-14.297-15.909-8.844-26.518c6.009-11.69,26.51-19.69,45.431-9.118
				c21.38,11.946,33.258,43.841,26.567,66.191c-5.002,16.7-18.74,25.103-32.162,25.69c-27.705,1.208-36.516-32.629-69.595-21.071
				L1480.144,611.26z M1455.429,613.088c10.203,4.468,14.6,16.267,10.349,25.979c-4.307,9.829-16.081,14.573-26.117,10.289
				c-10.084-4.307-14.613-16.056-10.25-26.018C1433.798,613.319,1445.359,608.675,1455.429,613.088z"/>
		</g>
	</g>
	<g>
		<g>
			<path d="M1436.77,521.697c-14.544,8.005-22.609,16.474-29.722,29.734c-23.812,42.848-57.615,25.146-56.028,0.496
				c0.305-4.749,1.33-7.602,3.071-8.56c0.747-0.411,2.189,0.294,4.327,2.118c3.792,3.213,7.567,6.158,12.634,6.605
				c7.067,0.621,17.064-4.811,19.407-13.235c2.363-8.487-3.159-21.155-14.811-23.708c-12.84-2.813-32.064,7.898-35.965,29.218
				c-4.407,24.092,12.616,53.562,34.109,62.639c16.061,6.78,31.288,1.541,40.29-8.433c18.577-20.589-1.898-48.933,28.081-67.073
				L1436.77,521.697z M1453.919,503.808c-3.054,10.712,3.242,21.616,13.437,24.525c10.321,2.939,21.477-3.116,24.567-13.581
				c3.102-10.517-3.072-21.492-13.53-24.474C1467.875,487.279,1456.931,493.234,1453.919,503.808z"/>
		</g>
		<g>
			<path d="M1411.124,452.568c14.544-8.005,26.015-10.287,41.023-9.201c48.939,2.808,52.071-35.22,30.396-47.068
				c-4.175-2.283-7.134-2.944-8.875-1.986c-0.747,0.411-0.923,2.007-0.526,4.789c0.686,4.922,1.154,9.688-1.179,14.207
				c-3.256,6.303-13.195,11.842-21.565,9.315c-8.434-2.544-16.182-13.988-12.105-25.198c4.493-12.352,23.828-22.863,43.926-14.751
				c22.711,9.167,38.5,39.317,34.669,62.331c-2.865,17.196-15.439,27.257-28.681,29.526c-27.333,4.678-40.325-27.785-71.69-12.164
				L1411.124,452.568z M1386.835,457.485c10.684,3.151,16.527,14.305,13.53,24.474c-3.039,10.292-14.124,16.477-24.618,13.488
				c-10.545-3.006-16.513-14.094-13.437-24.525C1365.403,460.431,1376.29,454.372,1386.835,457.485z"/>
		</g>
	</g>
	<g>
		<g>
			<path d="M1341.611,379.118c-12.101,11.366-17.809,21.573-21.406,36.184c-12.425,47.419-49.565,38.667-54.149,14.395
				c-0.884-4.676-0.6-7.694,0.849-9.055c0.621-0.583,2.194-0.259,4.717,0.977c4.471,2.17,8.86,4.086,13.878,3.261
				c7-1.153,15.335-8.899,15.513-17.64c0.181-8.808-8.314-19.707-20.235-19.287c-13.136,0.464-29.098,15.613-27.582,37.234
				c1.714,24.431,25.524,48.751,48.597,52.206c17.241,2.579,30.69-6.278,36.933-18.175c12.881-24.558-13.991-46.929,10.543-71.946
				L1341.611,379.118z M1353.78,357.53c-0.298,11.135,8.509,20.134,19.107,20.419c10.728,0.284,20.031-8.352,20.424-19.257
				c0.393-10.958-8.313-20.056-19.184-20.347C1363.194,338.052,1354.072,346.539,1353.78,357.53z"/>
		</g>
		<g>
			<path d="M1299.6,318.523c12.101-11.366,22.645-16.425,37.452-19.101c48.104-9.434,41.692-47.049,17.755-53.142
				c-4.611-1.175-7.642-1.08-9.09,0.281c-0.621,0.583-0.396,2.173,0.68,4.769c1.886,4.598,3.524,9.098,2.386,14.055
				c-1.589,6.914-9.84,14.748-18.576,14.379c-8.802-0.37-19.149-9.531-17.983-21.402c1.285-13.081,17.403-28.065,38.887-25.198
				c24.276,3.239,47.059,28.523,49.063,51.768c1.496,17.369-8.186,30.238-20.45,35.724c-25.315,11.32-45.962-16.899-72.465,6.021
				L1299.6,318.523z M1277.293,329.319c11.132,0.399,19.562,9.752,19.184,20.347c-0.388,10.724-9.589,19.469-20.497,19.179
				c-10.962-0.293-19.496-9.551-19.107-20.42C1257.265,337.495,1266.306,328.922,1277.293,329.319z"/>
		</g>
	</g>
	<g>
		<g>
			<path d="M1214.109,264.53c-8.903,14.013-11.901,25.317-11.761,40.363c-0.273,49.019-38.423,49.754-48.885,27.378
				c-2.016-4.31-2.49-7.305-1.424-8.982c0.457-0.719,2.061-0.795,4.812-0.224c4.869,0.994,9.596,1.76,14.253-0.284
				c6.495-2.854,12.648-12.425,10.652-20.937c-2.009-8.578-12.943-17.029-24.387-13.664c-12.61,3.708-24.316,22.344-17.483,42.912
				c7.721,23.243,36.819,40.895,60.029,38.518c17.342-1.778,28.174-13.695,31.27-26.769c6.387-26.985-25.195-41.991-7.634-72.312
				L1214.109,264.53z M1220.543,240.598c2.473,10.861,13.238,17.394,23.575,15.041c10.463-2.386,17.333-13.06,15.008-23.722
				c-2.338-10.713-13.028-17.367-23.632-14.952C1224.83,219.394,1218.099,229.878,1220.543,240.598z"/>
		</g>
		<g>
			<path d="M1158.38,216.251c8.903-14.013,17.862-21.529,31.543-27.795c44.26-21.072,28.717-55.921,4.016-55.886
				c-4.758,0.006-7.671,0.85-8.736,2.527c-0.457,0.719,0.156,2.203,1.841,4.452c2.968,3.986,5.671,7.939,5.798,13.024
				c0.176,7.092-5.874,16.728-14.428,18.537c-8.619,1.825-20.914-4.482-22.73-16.272c-2-12.991,9.897-31.505,31.42-34.057
				c24.321-2.884,52.664,15.958,60.372,37.978c5.758,16.455-0.429,31.323-10.949,39.68c-21.716,17.246-48.717-4.969-68.706,23.81
				L1158.38,216.251z M1139.448,232.243c10.883-2.375,21.37,4.594,23.632,14.952c2.285,10.485-4.459,21.239-15.099,23.665
				c-10.692,2.435-21.256-4.416-23.575-15.041C1122.074,245.132,1128.706,234.584,1139.448,232.243z"/>
		</g>
	</g>
	<g>
		<g>
			<path d="M1062.151,185.212c-5.127,15.79-5.212,27.485-1.324,42.021c11.96,47.539-24.802,57.764-40.514,38.704
				c-3.027-3.671-4.233-6.453-3.619-8.344c0.263-0.811,1.798-1.284,4.604-1.417c4.963-0.252,9.732-0.688,13.732-3.83
				c5.578-4.383,9.15-15.186,5.094-22.932c-4.085-7.806-16.781-13.263-27.024-7.151c-11.287,6.736-17.975,27.702-6.229,45.916
				c13.274,20.583,45.855,30.421,67.738,22.331c16.351-6.047,23.868-20.288,23.607-33.721
				c-0.545-27.726-34.871-34.382-25.426-68.124L1062.151,185.212z M1062.413,160.431c5.104,9.901,17.157,13.543,26.581,8.687
				c9.537-4.92,13.528-16.97,8.619-26.715c-4.935-9.792-16.948-13.569-26.614-8.586
				C1061.277,138.828,1057.373,150.66,1062.413,160.431z"/>
		</g>
		<g>
			<path d="M996.143,152.356c5.127-15.79,11.929-25.303,23.615-34.783c37.606-31.444,13.865-61.315-10.047-55.122
				c-4.607,1.192-7.216,2.736-7.83,4.626c-0.263,0.811,0.701,2.095,2.893,3.852c3.868,3.12,7.471,6.274,8.863,11.166
				c1.939,6.824-1.517,17.665-9.35,21.55c-7.891,3.917-21.371,0.875-26.07-10.089c-5.177-12.082,1.728-32.978,21.934-40.817
				c22.833-8.858,54.979,2.321,67.935,21.723c9.679,14.499,7.396,30.44-0.708,41.157c-16.729,22.117-48.417,7.337-60.597,40.191
				L996.143,152.356z M981.797,172.564c9.947-5.014,21.841-0.88,26.614,8.586c4.827,9.584,0.978,21.68-8.72,26.682
				c-9.747,5.025-21.686,1.024-26.581-8.687C968.187,189.378,971.978,177.51,981.797,172.564z"/>
		</g>
	</g>
	<g>
		<g>
			<path d="M895.182,146.446c-1.04,16.569,1.787,27.917,9.168,41.03c23.406,43.071-9.658,62.117-29.616,47.563
				c-3.845-2.803-5.705-5.198-5.58-7.182c0.053-0.851,1.422-1.69,4.107-2.518c4.745-1.478,9.255-3.087,12.348-7.124
				c4.313-5.633,5.086-16.985-0.768-23.478c-5.898-6.545-19.552-8.674-27.953-0.206c-9.257,9.331-10.522,31.302,5.385,46.023
				c17.975,16.635,51.979,18.063,71.163,4.785c14.334-9.923,18.073-25.587,14.479-38.533c-7.422-26.719-42.325-24.63-41.568-59.661
				L895.182,146.446z M889.274,122.379c7.405,8.321,19.986,8.851,27.906,1.804c8.014-7.137,8.883-19.801,1.704-28.019
				c-7.215-8.257-19.789-8.928-27.913-1.698C882.802,101.737,881.962,114.168,889.274,122.379z"/>
		</g>
		<g>
			<path d="M823.077,131.037c1.04-16.569,5.262-27.475,14.224-39.563c28.606-39.808-1.819-62.837-23.439-50.892
				c-4.165,2.3-6.309,4.444-6.434,6.428c-0.053,0.851,1.199,1.855,3.76,3.011c4.523,2.06,8.797,4.219,11.361,8.612
				c3.575,6.127,2.923,17.487-3.697,23.198c-6.669,5.756-20.482,6.162-27.76-3.289c-8.019-10.415-6.527-32.371,11.095-44.989
				c19.913-14.258,53.829-11.425,71.203,4.147c12.981,11.637,14.734,27.645,9.55,40.04c-10.704,25.582-45.072,19.147-48.699,53.998
				L823.077,131.037z M814.207,154.177c8.387-7.33,20.936-6.284,27.913,1.698c7.059,8.083,6.339,20.756-1.811,28.013
				c-8.191,7.29-20.75,6.385-27.906-1.804C805.206,173.848,805.927,161.41,814.207,154.177z"/>
		</g>
	</g>
	<g>
		<g>
			<path d="M723.791,150.177c3.104,16.309,8.658,26.601,19.062,37.472c33.361,35.916,6.057,62.571-16.888,53.424
				c-4.42-1.761-6.816-3.62-7.188-5.572c-0.159-0.837,0.958-1.99,3.354-3.458c4.229-2.609,8.2-5.287,10.195-9.965
				c2.78-6.527,0.713-17.715-6.57-22.553c-7.337-4.876-21.092-3.551-27.13,6.736c-6.653,11.336-2.426,32.934,16.636,43.248
				c21.541,11.655,54.836,4.6,70.125-13.022c11.423-13.169,11.159-29.271,4.465-40.92c-13.82-24.042-47.113-13.357-55.072-47.481
				L723.791,150.177z M712.096,128.328c9.238,6.223,21.557,3.615,27.481-5.177c5.993-8.902,3.692-21.386-5.301-27.566
				c-9.039-6.208-21.386-3.739-27.461,5.281C700.704,109.938,702.976,122.188,712.096,128.328z"/>
		</g>
		<g>
			<path d="M650.118,153.141c-3.104-16.309-1.72-27.921,3.962-41.855c17.834-45.661-17.353-60.421-35.334-43.484
				c-3.464,3.262-5.009,5.871-4.638,7.823c0.159,0.837,1.622,1.499,4.39,1.984c4.892,0.873,9.569,1.905,13.143,5.523
				c4.984,5.049,7.171,16.215,2.175,23.39c-5.033,7.231-18.313,11.051-27.708,3.702c-10.352-8.099-14.355-29.739-0.415-46.335
				c15.753-18.753,49.311-24.424,70.005-13.65c15.462,8.052,21.132,23.125,19.186,36.418c-4.021,27.438-38.912,29.731-33.778,64.393
				L650.118,153.141z M647.267,177.759c6.306-9.182,18.722-11.282,27.461-5.281c8.844,6.078,11.29,18.534,5.196,27.586
				c-6.126,9.095-18.517,11.334-27.481,5.177C643.428,199.048,641.04,186.82,647.267,177.759z"/>
		</g>
	</g>
	<g>
		<g>
			<path d="M558.742,196.434c7.073,15.019,15.018,23.601,27.804,31.535c41.264,26.462,21.469,59.084-3.032,55.948
				c-4.72-0.603-7.503-1.806-8.35-3.604c-0.363-0.771,0.431-2.166,2.386-4.185c3.445-3.582,6.622-7.165,7.387-12.193
				c1.065-7.014-3.728-17.333-11.987-20.202c-8.321-2.893-21.312,1.821-24.593,13.289c-3.616,12.637,5.864,32.498,26.896,37.733
				c23.767,5.915,54.25-9.22,64.662-30.098c7.778-15.602,3.507-31.129-5.88-40.741c-19.379-19.836-48.956-1.187-65.173-32.247
				L558.742,196.434z M541.968,178.192c10.498,3.723,21.778-1.875,25.322-11.866c3.583-10.116-1.758-21.631-12.008-25.373
				c-10.301-3.758-21.643,1.713-25.277,11.963C526.35,163.224,531.605,174.521,541.968,178.192z"/>
		</g>
		<g>
			<path d="M488.136,217.677c-7.073-15.019-8.628-26.61-6.6-41.521c5.884-48.666-31.873-54.184-45.061-33.299
				c-2.541,4.023-3.387,6.935-2.54,8.733c0.363,0.771,1.945,1.047,4.746,0.827c4.955-0.374,9.741-0.542,14.105,2.071
				c6.085,3.647,10.988,13.914,7.939,22.108c-3.07,8.258-14.978,15.269-25.91,10.494c-12.045-5.262-21.318-25.22-11.957-44.768
				c10.578-22.089,41.662-35.949,64.39-30.677c16.982,3.942,26.231,17.124,27.662,30.483c2.948,27.574-30.268,38.496-16.653,70.782
				L488.136,217.677z M491.514,242.228c3.817-10.464,15.317-15.594,25.277-11.963c10.081,3.681,15.556,15.133,11.911,25.418
				c-3.664,10.335-15.106,15.593-25.322,11.866C493.106,263.802,487.744,252.555,491.514,242.228z"/>
		</g>
	</g>
	<g>
		<g>
			<path d="M410.475,282.458c10.586,12.788,20.416,19.125,34.773,23.629c46.549,15.368,35.489,51.888,10.978,54.944
				c-4.722,0.59-7.717,0.117-8.984-1.414c-0.543-0.656-0.121-2.206,1.27-4.647c2.446-4.326,4.632-8.586,4.123-13.647
				c-0.713-7.058-7.921-15.862-16.634-16.586c-8.779-0.732-20.189,7.064-20.515,18.988c-0.359,13.139,13.762,30.019,35.435,29.858
				c24.491-0.182,50.253-22.422,55.145-45.235c3.653-17.046-4.345-31.023-15.828-37.998c-23.703-14.393-47.713,11.026-71.145-15.025
				L410.475,282.458z M389.691,268.961c11.094,0.995,20.627-7.232,21.575-17.791c0.955-10.689-7.082-20.514-17.941-21.589
				c-10.912-1.078-20.537,7.042-21.507,17.873C370.841,258.347,378.74,267.982,389.691,268.961z"/>
		</g>
		<g>
			<path d="M347.37,320.594c-10.586-12.788-14.976-23.628-16.719-38.574c-6.405-48.6-44.347-44.555-51.927-21.046
				c-1.461,4.529-1.556,7.559-0.289,9.09c0.543,0.656,2.144,0.531,4.802-0.38c4.707-1.595,9.3-2.947,14.177-1.502
				c6.801,2.018,14.103,10.744,13.188,19.439c-0.92,8.762-10.71,18.515-22.485,16.609c-12.975-2.101-26.921-19.126-22.715-40.387
				c4.752-24.026,31.413-45.181,54.737-45.727c17.429-0.406,29.666,10.062,34.374,22.646c9.713,25.974-19.743,44.814,1.475,72.699
				L347.37,320.594z M356.748,343.533c1.095-11.085,10.957-18.914,21.507-17.873c10.679,1.058,18.831,10.788,17.859,21.657
				c-0.979,10.922-10.753,18.86-21.575,17.791C363.655,364.034,355.665,354.474,356.748,343.533z"/>
		</g>
	</g>
	<g>
		<g>
			<path d="M288.148,402.554c13.426,9.764,24.52,13.466,39.546,14.27c48.906,3.348,47.245,41.469,24.257,50.507
				c-4.428,1.742-7.447,2.026-9.054,0.858c-0.689-0.501-0.664-2.107,0.078-4.817c1.297-4.797,2.359-9.467,0.611-14.243
				c-2.441-6.661-11.607-13.403-20.227-11.944c-8.687,1.467-17.807,11.849-15.167,23.482c2.91,12.818,20.774,25.67,41.731,20.141
				c23.681-6.248,43.125-34.181,42.208-57.494c-0.687-17.42-11.901-28.977-24.755-32.888c-26.532-8.067-43.489,22.511-72.649,3.083
				L288.148,402.554z M264.667,394.632c10.995-1.787,18.19-12.121,16.491-22.585c-1.725-10.592-11.947-18.118-22.734-16.467
				c-10.839,1.661-18.15,11.913-16.405,22.647C243.774,389.023,253.815,396.399,264.667,394.632z"/>
		</g>
		<g>
			<path d="M236.469,455.145c-13.426-9.764-20.366-19.178-25.761-33.225c-18.254-45.495-54.009-32.169-55.524-7.515
				c-0.293,4.749,0.367,7.709,1.974,8.878c0.689,0.501,2.209-0.017,4.558-1.559c4.164-2.712,8.279-5.161,13.362-4.97
				c7.089,0.269,16.327,6.912,17.596,15.563c1.281,8.716-5.786,20.592-17.666,21.665c-13.091,1.181-30.822-11.854-32.019-33.495
				c-1.353-24.454,19.23-51.559,41.691-57.87c16.784-4.714,31.234,2.393,38.915,13.417c15.85,22.755-8.016,48.31,19.452,70.064
				L236.469,455.145z M251.241,475.043c-1.688-11.01,5.926-21.04,16.405-22.647c10.608-1.622,20.917,5.783,22.671,16.554
				c1.76,10.823-5.741,20.937-16.491,22.585C263.015,493.191,252.904,485.911,251.241,475.043z"/>
		</g>
	</g>
	<g>
		<g>
			<path d="M199.42,549.222c15.435,6.112,27.101,6.934,41.854,3.97c48.198-8.939,56.085,28.394,36.073,42.873
				c-3.855,2.79-6.707,3.817-8.555,3.086c-0.792-0.314-1.168-1.875-1.124-4.684c0.061-4.969-0.073-9.756-2.956-13.946
				c-4.023-5.843-14.579-10.089-22.565-6.53c-8.048,3.585-14.295,15.911-8.84,26.52c6.011,11.689,26.513,19.686,45.432,9.111
				c21.379-11.95,33.252-43.845,26.557-66.195c-5.004-16.7-18.743-25.1-32.166-25.685c-27.705-1.204-36.511,32.634-69.591,21.081
				L199.42,549.222z M174.705,547.397c10.203-4.469,14.598-16.269,10.346-25.98c-4.309-9.828-16.083-14.571-26.119-10.286
				c-10.084,4.308-14.61,16.058-10.247,26.02C153.074,547.169,164.636,551.811,174.705,547.397z"/>
		</g>
		<g>
			<path d="M162.468,613.027c-15.435-6.112-24.501-13.501-33.225-25.761c-29.01-39.514-60.319-17.703-55.645,6.552
				c0.9,4.673,2.275,7.375,4.123,8.106c0.792,0.314,2.135-0.567,4.026-2.645c3.357-3.664,6.733-7.061,11.703-8.141
				c6.933-1.505,17.534,2.628,20.917,10.689c3.411,8.123-0.474,21.384-11.713,25.382c-12.384,4.405-32.803-3.804-39.353-24.464
				c-7.401-23.346,5.782-54.724,25.963-66.43c15.081-8.746,30.846-5.462,41.031,3.301c21.018,18.09,4.27,48.784,36.291,63.011
				L162.468,613.027z M181.731,628.618c-4.377-10.243,0.499-21.853,10.247-26.02c9.87-4.214,21.699,0.391,26.079,10.385
				c4.4,10.044-0.345,21.708-10.346,25.98C197.654,643.261,186.049,638.729,181.731,628.618z"/>
		</g>
	</g>
	<g>
		<g>
			<path d="M150.188,713.406c16.471,2.075,27.974-0.034,41.524-6.579c44.453-20.662,61.39,13.53,45.614,32.537
				c-3.038,3.662-5.545,5.368-7.517,5.119c-0.846-0.107-1.598-1.525-2.255-4.257c-1.178-4.828-2.501-9.43-6.337-12.77
				c-5.351-4.657-16.633-6.14-23.48-0.704c-6.901,5.476-9.881,18.97-1.957,27.886c8.733,9.824,30.581,12.462,46.27-2.491
				c17.729-16.898,21.283-50.746,9.233-70.724c-9.006-14.927-24.404-19.641-37.55-16.865c-27.132,5.734-27.233,40.699-62.148,37.749
				L150.188,713.406z M125.798,717.795c8.768-6.87,10.086-19.392,3.549-27.739c-6.621-8.445-19.205-10.106-27.857-3.456
				c-8.693,6.684-10.15,19.191-3.443,27.752C104.791,722.961,117.145,724.577,125.798,717.795z"/>
		</g>
		<g>
			<path d="M130.293,784.404c-16.471-2.075-27.091-6.973-38.594-16.674c-37.938-31.043-62.828-2.121-52.26,20.205
				c2.035,4.301,4.04,6.576,6.012,6.824c0.846,0.107,1.926-1.081,3.241-3.564c2.339-4.385,4.762-8.515,9.306-10.799
				c6.339-3.184,17.636-1.822,22.921,5.143c5.327,7.017,4.867,20.828-5.022,27.499C65,820.387,43.18,817.523,31.691,799.145
				c-12.983-20.767-8.03-54.439,8.599-70.803c12.427-12.227,28.514-12.973,40.56-7.023c24.861,12.285,16.286,46.183,50.841,51.986
				L130.293,784.404z M152.832,794.706c-6.79-8.83-4.96-21.288,3.443-27.752c8.509-6.539,21.112-5.026,27.844,3.562
				c6.763,8.631,5.072,21.109-3.549,27.739C171.9,804.922,159.531,803.423,152.832,794.706z"/>
		</g>
	</g>
	<g>
		<g>
			<path d="M143.252,884.697c16.471-2.075,27.091-6.973,38.594-16.674c37.938-31.043,62.828-2.121,52.26,20.205
				c-2.035,4.301-4.04,6.576-6.012,6.824c-0.846,0.107-1.926-1.081-3.241-3.564c-2.339-4.385-4.762-8.515-9.306-10.799
				c-6.339-3.184-17.636-1.822-22.921,5.143c-5.327,7.017-4.867,20.828,5.022,27.499c10.897,7.35,32.717,4.486,44.206-13.892
				c12.983-20.767,8.03-54.439-8.599-70.803c-12.427-12.227-28.514-12.973-40.56-7.023c-24.861,12.285-16.286,46.183-50.841,51.986
				L143.252,884.697z M120.713,894.999c6.79-8.83,4.96-21.288-3.443-27.752c-8.509-6.539-21.112-5.026-27.844,3.562
				c-6.763,8.632-5.072,21.109,3.549,27.739C101.645,905.215,114.014,903.716,120.713,894.999z"/>
		</g>
		<g>
			<path d="M141.591,958.411c-16.471,2.075-27.974-0.034-41.524-6.579c-44.453-20.662-61.39,13.53-45.614,32.537
				c3.038,3.662,5.545,5.368,7.517,5.119c0.846-0.107,1.598-1.525,2.255-4.257c1.178-4.828,2.501-9.43,6.337-12.771
				c5.351-4.657,16.633-6.14,23.48-0.704c6.901,5.476,9.881,18.97,1.957,27.886c-8.733,9.824-30.581,12.462-46.27-2.492
				C32,980.254,28.445,946.406,40.495,926.428c9.006-14.927,24.404-19.64,37.55-16.864c27.132,5.734,27.233,40.699,62.148,37.749
				L141.591,958.411z M165.981,962.8c-8.768-6.87-10.086-19.392-3.549-27.738c6.621-8.445,19.205-10.106,27.857-3.456
				c8.693,6.684,10.15,19.191,3.443,27.752C186.988,967.966,174.634,969.583,165.981,962.8z"/>
		</g>
	</g>
	<g>
		<g>
			<path d="M178.994,1052.343c15.435-6.113,24.501-13.501,33.225-25.761c29.01-39.514,60.319-17.703,55.645,6.552
				c-0.9,4.673-2.275,7.375-4.123,8.106c-0.792,0.314-2.135-0.567-4.026-2.645c-3.357-3.664-6.733-7.061-11.703-8.141
				c-6.933-1.505-17.534,2.628-20.917,10.689c-3.411,8.123,0.474,21.384,11.713,25.382c12.384,4.405,32.803-3.804,39.353-24.464
				c7.401-23.346-5.782-54.724-25.963-66.43c-15.081-8.746-30.846-5.462-41.031,3.301c-21.018,18.09-4.27,48.784-36.291,63.011
				L178.994,1052.343z M159.731,1067.934c4.377-10.243-0.499-21.853-10.247-26.02c-9.87-4.214-21.699,0.391-26.079,10.385
				c-4.4,10.044,0.345,21.708,10.346,25.98C143.808,1082.577,155.414,1078.045,159.731,1067.934z"/>
		</g>
		<g>
			<path d="M195.745,1124.148c-15.435,6.113-27.101,6.934-41.854,3.97c-48.198-8.939-56.085,28.394-36.073,42.873
				c3.855,2.79,6.707,3.818,8.555,3.086c0.792-0.314,1.168-1.875,1.124-4.684c-0.061-4.969,0.073-9.756,2.956-13.946
				c4.023-5.843,14.579-10.089,22.565-6.53c8.048,3.585,14.295,15.911,8.84,26.52c-6.011,11.689-26.513,19.686-45.432,9.111
				c-21.379-11.949-33.252-43.845-26.557-66.195c5.004-16.7,18.743-25.1,32.166-25.685c27.705-1.204,36.511,32.634,69.591,21.081
				L195.745,1124.148z M220.459,1122.324c-10.203-4.469-14.598-16.269-10.346-25.98c4.309-9.828,16.083-14.571,26.119-10.286
				c10.084,4.308,14.61,16.058,10.247,26.02C242.091,1122.095,230.529,1126.738,220.459,1122.324z"/>
		</g>
	</g>
	<g>
		<g>
			<path d="M255.518,1205.723c13.426-9.764,20.366-19.178,25.761-33.225c18.254-45.495,54.009-32.169,55.524-7.515
				c0.293,4.749-0.367,7.709-1.974,8.878c-0.689,0.501-2.209-0.017-4.558-1.559c-4.164-2.712-8.279-5.161-13.362-4.97
				c-7.089,0.269-16.327,6.912-17.596,15.563c-1.281,8.716,5.786,20.592,17.666,21.665c13.091,1.181,30.822-11.854,32.019-33.495
				c1.353-24.454-19.23-51.559-41.691-57.87c-16.784-4.714-31.234,2.393-38.915,13.417c-15.85,22.755,8.016,48.31-19.452,70.064
				L255.518,1205.723z M240.746,1225.621c1.688-11.01-5.926-21.04-16.405-22.647c-10.608-1.622-20.917,5.783-22.671,16.554
				c-1.76,10.823,5.741,20.937,16.491,22.585C228.972,1243.769,239.083,1236.489,240.746,1225.621z"/>
		</g>
		<g>
			<path d="M289.627,1271.093c-13.426,9.765-24.52,13.466-39.546,14.27c-48.906,3.348-47.245,41.469-24.257,50.507
				c4.428,1.742,7.447,2.026,9.054,0.858c0.689-0.501,0.664-2.107-0.078-4.817c-1.297-4.797-2.359-9.467-0.611-14.243
				c2.441-6.661,11.607-13.402,20.227-11.944c8.687,1.467,17.807,11.849,15.167,23.482c-2.91,12.818-20.774,25.669-41.731,20.141
				c-23.681-6.248-43.125-34.181-42.208-57.494c0.687-17.42,11.901-28.977,24.755-32.888c26.532-8.067,43.489,22.511,72.649,3.083
				L289.627,1271.093z M313.108,1263.17c-10.995-1.787-18.19-12.121-16.491-22.585c1.725-10.592,11.947-18.118,22.734-16.467
				c10.839,1.661,18.15,11.913,16.405,22.647C334.001,1257.561,323.959,1264.937,313.108,1263.17z"/>
		</g>
	</g>
	<g>
		<g>
			<path d="M367.74,1335.31c10.586-12.788,14.976-23.628,16.719-38.574c6.405-48.6,44.347-44.555,51.927-21.046
				c1.461,4.529,1.556,7.559,0.289,9.09c-0.543,0.656-2.144,0.531-4.802-0.38c-4.707-1.595-9.3-2.947-14.177-1.502
				c-6.801,2.019-14.103,10.744-13.188,19.439c0.92,8.762,10.71,18.515,22.485,16.609c12.975-2.101,26.921-19.126,22.715-40.387
				c-4.752-24.026-31.413-45.181-54.737-45.727c-17.429-0.406-29.666,10.062-34.374,22.646
				c-9.713,25.974,19.743,44.814-1.475,72.699L367.74,1335.31z M358.362,1358.249c-1.095-11.085-10.957-18.914-21.507-17.873
				c-10.679,1.058-18.831,10.788-17.859,21.657c0.979,10.922,10.753,18.86,21.575,17.791
				C351.455,1378.749,359.446,1369.19,358.362,1358.249z"/>
		</g>
		<g>
			<path d="M416.99,1390.183c-10.586,12.788-20.416,19.125-34.773,23.629c-46.549,15.368-35.489,51.888-10.978,54.944
				c4.722,0.59,7.717,0.117,8.984-1.414c0.543-0.656,0.121-2.206-1.27-4.647c-2.446-4.326-4.632-8.587-4.123-13.647
				c0.713-7.058,7.921-15.862,16.634-16.586c8.779-0.732,20.189,7.064,20.515,18.988c0.359,13.139-13.762,30.019-35.435,29.858
				c-24.491-0.182-50.253-22.422-55.145-45.234c-3.653-17.046,4.345-31.023,15.828-37.998
				c23.703-14.393,47.713,11.026,71.145-15.025L416.99,1390.183z M437.774,1376.686c-11.094,0.995-20.627-7.232-21.575-17.791
				c-0.955-10.689,7.082-20.514,17.941-21.589c10.912-1.078,20.537,7.042,21.507,17.873
				C456.624,1366.072,448.725,1375.707,437.774,1376.686z"/>
		</g>
	</g>
	<g>
		<g>
			<path d="M508.552,1433.074c7.073-15.02,8.628-26.61,6.6-41.521c-5.884-48.666,31.873-54.184,45.061-33.299
				c2.541,4.023,3.387,6.935,2.54,8.733c-0.363,0.771-1.945,1.047-4.746,0.827c-4.955-0.374-9.741-0.542-14.105,2.071
				c-6.085,3.647-10.988,13.914-7.939,22.108c3.07,8.258,14.978,15.269,25.91,10.494c12.045-5.262,21.318-25.22,11.957-44.768
				c-10.578-22.089-41.662-35.949-64.39-30.677c-16.982,3.942-26.231,17.124-27.662,30.483
				c-2.948,27.574,30.268,38.496,16.653,70.782L508.552,1433.074z M505.174,1457.625c-3.817-10.464-15.317-15.594-25.277-11.963
				c-10.08,3.681-15.556,15.133-11.911,25.418c3.664,10.335,15.106,15.593,25.322,11.866
				C503.583,1479.199,508.945,1467.952,505.174,1457.625z"/>
		</g>
		<g>
			<path d="M569.902,1473.974c-7.073,15.019-15.018,23.601-27.804,31.535c-41.264,26.462-21.469,59.084,3.032,55.948
				c4.72-0.603,7.503-1.806,8.35-3.604c0.363-0.771-0.431-2.166-2.386-4.185c-3.445-3.582-6.622-7.165-7.387-12.193
				c-1.065-7.014,3.728-17.333,11.987-20.202c8.321-2.893,21.312,1.821,24.593,13.289c3.616,12.637-5.864,32.498-26.896,37.733
				c-23.766,5.915-54.25-9.22-64.662-30.098c-7.778-15.602-3.507-31.129,5.88-40.741c19.379-19.836,48.956-1.187,65.173-32.247
				L569.902,1473.974z M586.676,1455.732c-10.498,3.723-21.778-1.875-25.322-11.866c-3.583-10.116,1.758-21.631,12.008-25.373
				c10.301-3.758,21.643,1.713,25.277,11.963C602.294,1440.763,597.039,1452.06,586.676,1455.732z"/>
		</g>
	</g>
	<g>
		<g>
			<path d="M669.292,1492.594c3.104-16.309,1.72-27.921-3.962-41.855c-17.834-45.661,17.353-60.421,35.334-43.484
				c3.464,3.262,5.009,5.871,4.638,7.823c-0.159,0.837-1.622,1.499-4.39,1.984c-4.892,0.873-9.569,1.905-13.143,5.523
				c-4.984,5.049-7.171,16.215-2.175,23.39c5.033,7.231,18.313,11.052,27.708,3.702c10.352-8.099,14.355-29.739,0.415-46.335
				c-15.753-18.753-49.311-24.424-70.005-13.65c-15.462,8.052-21.132,23.125-19.186,36.418
				c4.021,27.438,38.912,29.731,33.778,64.393L669.292,1492.594z M672.143,1517.212c-6.306-9.182-18.722-11.282-27.461-5.281
				c-8.844,6.078-11.29,18.534-5.196,27.586c6.126,9.095,18.517,11.334,27.481,5.177
				C675.982,1538.501,678.37,1526.273,672.143,1517.212z"/>
		</g>
		<g>
			<path d="M738.903,1516.903c-3.104,16.309-8.658,26.601-19.062,37.472c-33.361,35.917-6.057,62.571,16.888,53.424
				c4.42-1.761,6.816-3.62,7.188-5.572c0.159-0.837-0.958-1.99-3.354-3.458c-4.229-2.609-8.2-5.287-10.195-9.965
				c-2.78-6.527-0.713-17.715,6.57-22.553c7.337-4.876,21.092-3.551,27.13,6.736c6.653,11.336,2.426,32.933-16.636,43.248
				c-21.541,11.655-54.836,4.6-70.125-13.022c-11.423-13.169-11.159-29.271-4.465-40.92c13.82-24.042,47.113-13.357,55.072-47.481
				L738.903,1516.903z M750.598,1495.054c-9.238,6.223-21.557,3.615-27.481-5.177c-5.993-8.902-3.692-21.386,5.301-27.566
				c9.039-6.208,21.386-3.739,27.461,5.281C761.99,1476.664,759.718,1488.914,750.598,1495.054z"/>
		</g>
	</g>
	<g>
		<g>
			<path d="M839.814,1510.172c-1.039-16.569-5.262-27.475-14.224-39.563c-28.606-39.808,1.819-62.837,23.439-50.892
				c4.165,2.3,6.309,4.444,6.434,6.428c0.053,0.851-1.199,1.855-3.76,3.011c-4.523,2.06-8.797,4.219-11.361,8.612
				c-3.575,6.128-2.923,17.487,3.697,23.198c6.669,5.756,20.482,6.162,27.76-3.289c8.019-10.415,6.527-32.371-11.095-44.989
				c-19.913-14.258-53.829-11.425-71.203,4.147c-12.981,11.637-14.734,27.645-9.55,40.04c10.704,25.582,45.072,19.147,48.699,53.998
				L839.814,1510.172z M848.684,1533.312c-8.387-7.33-20.936-6.284-27.913,1.698c-7.059,8.083-6.339,20.756,1.811,28.013
				c8.191,7.29,20.75,6.385,27.906-1.804C857.685,1552.984,856.964,1540.545,848.684,1533.312z"/>
		</g>
		<g>
			<path d="M913.279,1516.448c1.039,16.569-1.787,27.917-9.168,41.03c-23.406,43.071,9.658,62.117,29.616,47.563
				c3.845-2.803,5.705-5.198,5.58-7.182c-0.053-0.851-1.422-1.69-4.107-2.518c-4.745-1.478-9.255-3.087-12.348-7.124
				c-4.313-5.633-5.086-16.984,0.768-23.478c5.898-6.544,19.552-8.673,27.953-0.206c9.257,9.331,10.522,31.302-5.385,46.023
				c-17.975,16.635-51.979,18.063-71.163,4.785c-14.334-9.923-18.073-25.587-14.479-38.533c7.422-26.719,42.325-24.63,41.568-59.661
				L913.279,1516.448z M919.187,1492.381c-7.405,8.321-19.986,8.851-27.906,1.804c-8.014-7.137-8.883-19.801-1.704-28.019
				c7.215-8.257,19.789-8.928,27.913-1.698C925.659,1471.739,926.499,1484.17,919.187,1492.381z"/>
		</g>
	</g>
	<g>
		<g>
			<path d="M1009.385,1485.066c-5.127-15.79-11.929-25.303-23.615-34.783c-37.607-31.444-13.865-61.315,10.047-55.122
				c4.607,1.192,7.216,2.736,7.83,4.626c0.263,0.811-0.7,2.095-2.893,3.852c-3.868,3.12-7.471,6.274-8.863,11.166
				c-1.939,6.824,1.517,17.665,9.349,21.55c7.891,3.917,21.371,0.875,26.07-10.089c5.177-12.082-1.728-32.978-21.934-40.817
				c-22.833-8.858-54.979,2.321-67.935,21.723c-9.679,14.499-7.396,30.44,0.707,41.157c16.729,22.117,48.417,7.337,60.597,40.191
				L1009.385,1485.066z M1023.731,1505.274c-9.947-5.014-21.841-0.88-26.614,8.586c-4.827,9.584-0.978,21.68,8.72,26.682
				c9.747,5.025,21.686,1.024,26.581-8.687C1037.342,1522.088,1033.55,1510.22,1023.731,1505.274z"/>
		</g>
		<g>
			<path d="M1082.104,1472.876c5.127,15.79,5.212,27.485,1.324,42.021c-11.96,47.539,24.802,57.764,40.514,38.704
				c3.027-3.671,4.233-6.453,3.619-8.344c-0.263-0.811-1.797-1.284-4.604-1.417c-4.963-0.252-9.732-0.688-13.732-3.829
				c-5.578-4.383-9.15-15.186-5.094-22.932c4.085-7.806,16.781-13.263,27.024-7.151c11.287,6.736,17.975,27.702,6.229,45.916
				c-13.274,20.583-45.854,30.422-67.738,22.331c-16.351-6.047-23.868-20.288-23.607-33.721
				c0.545-27.726,34.871-34.381,25.426-68.124L1082.104,1472.876z M1081.841,1448.095c-5.104,9.901-17.157,13.543-26.581,8.687
				c-9.537-4.92-13.528-16.97-8.619-26.715c4.936-9.792,16.948-13.569,26.614-8.586
				C1082.977,1426.492,1086.881,1438.324,1081.841,1448.095z"/>
		</g>
	</g>
	<g>
		<g>
			<path d="M1167.283,1418.365c-8.903-14.013-17.862-21.529-31.543-27.795c-44.26-21.072-28.717-55.921-4.016-55.886
				c4.758,0.006,7.671,0.85,8.736,2.527c0.457,0.719-0.156,2.203-1.842,4.452c-2.968,3.986-5.67,7.939-5.798,13.024
				c-0.176,7.092,5.874,16.728,14.428,18.537c8.619,1.825,20.914-4.482,22.73-16.272c2-12.991-9.897-31.505-31.42-34.057
				c-24.321-2.884-52.663,15.958-60.371,37.979c-5.758,16.455,0.429,31.323,10.949,39.68c21.716,17.246,48.717-4.969,68.706,23.81
				L1167.283,1418.365z M1186.215,1434.357c-10.883-2.375-21.37,4.594-23.632,14.952c-2.285,10.485,4.459,21.239,15.099,23.665
				c10.692,2.435,21.256-4.416,23.575-15.041C1203.589,1447.246,1196.957,1436.698,1186.215,1434.357z"/>
		</g>
		<g>
			<path d="M1234.664,1388.426c8.903,14.013,11.901,25.317,11.761,40.363c0.273,49.019,38.423,49.754,48.885,27.378
				c2.016-4.31,2.49-7.305,1.424-8.982c-0.457-0.719-2.061-0.795-4.812-0.224c-4.869,0.994-9.596,1.76-14.253-0.284
				c-6.495-2.854-12.648-12.425-10.652-20.937c2.009-8.578,12.943-17.029,24.387-13.664c12.61,3.708,24.316,22.344,17.483,42.912
				c-7.721,23.243-36.819,40.895-60.029,38.518c-17.342-1.778-28.174-13.695-31.27-26.769c-6.387-26.985,25.195-41.991,7.634-72.313
				L1234.664,1388.426z M1228.23,1364.494c-2.473,10.861-13.238,17.394-23.575,15.041c-10.463-2.386-17.333-13.06-15.009-23.722
				c2.338-10.713,13.028-17.367,23.632-14.952C1223.943,1343.29,1230.674,1353.774,1228.23,1364.494z"/>
		</g>
	</g>
	<g>
		<g>
			<path d="M1303.629,1314.464c-12.101-11.366-22.645-16.425-37.452-19.101c-48.104-9.434-41.692-47.049-17.755-53.142
				c4.611-1.175,7.642-1.08,9.09,0.281c0.621,0.583,0.396,2.173-0.68,4.769c-1.886,4.598-3.524,9.098-2.386,14.055
				c1.589,6.914,9.84,14.748,18.576,14.379c8.802-0.37,19.149-9.531,17.983-21.402c-1.285-13.081-17.403-28.065-38.887-25.198
				c-24.276,3.239-47.059,28.523-49.063,51.768c-1.496,17.369,8.186,30.238,20.45,35.724c25.315,11.32,45.962-16.899,72.465,6.021
				L1303.629,1314.464z M1325.936,1325.259c-11.132,0.399-19.562,9.752-19.184,20.347c0.388,10.724,9.589,19.469,20.497,19.179
				c10.962-0.293,19.496-9.551,19.107-20.419C1345.964,1333.435,1336.923,1324.862,1325.936,1325.259z"/>
		</g>
		<g>
			<path d="M1361.477,1268.745c12.101,11.366,17.809,21.573,21.406,36.184c12.425,47.419,49.565,38.667,54.149,14.395
				c0.884-4.676,0.6-7.694-0.849-9.055c-0.621-0.583-2.194-0.259-4.717,0.977c-4.471,2.17-8.859,4.086-13.878,3.261
				c-7-1.153-15.335-8.899-15.513-17.64c-0.181-8.808,8.314-19.707,20.235-19.287c13.136,0.464,29.099,15.613,27.582,37.234
				c-1.714,24.432-25.523,48.751-48.597,52.206c-17.241,2.579-30.69-6.278-36.933-18.175
				c-12.881-24.557,13.991-46.929-10.543-71.946L1361.477,1268.745z M1349.307,1247.157c0.298,11.135-8.509,20.134-19.107,20.419
				c-10.728,0.284-20.031-8.352-20.424-19.257c-0.393-10.958,8.313-20.056,19.184-20.347
				C1339.893,1227.679,1349.015,1236.166,1349.307,1247.157z"/>
		</g>
	</g>
	<g>
		<g>
			<path d="M1410.021,1180.05c-14.544-8.005-26.015-10.286-41.023-9.201c-48.939,2.808-52.071-35.22-30.396-47.068
				c4.175-2.283,7.134-2.944,8.875-1.986c0.747,0.411,0.923,2.007,0.526,4.789c-0.686,4.922-1.154,9.688,1.179,14.207
				c3.256,6.303,13.195,11.842,21.565,9.315c8.434-2.544,16.182-13.988,12.105-25.198c-4.493-12.352-23.828-22.863-43.926-14.751
				c-22.711,9.167-38.5,39.317-34.669,62.331c2.865,17.196,15.439,27.257,28.681,29.526c27.333,4.678,40.325-27.785,71.69-12.164
				L1410.021,1180.05z M1434.31,1184.967c-10.684,3.151-16.527,14.305-13.53,24.474c3.039,10.292,14.124,16.478,24.618,13.488
				c10.545-3.006,16.513-14.094,13.437-24.525C1455.741,1187.913,1444.854,1181.854,1434.31,1184.967z"/>
		</g>
		<g>
			<path d="M1454.701,1121.397c14.544,8.005,22.609,16.474,29.722,29.734c23.812,42.848,57.615,25.146,56.028,0.496
				c-0.305-4.749-1.33-7.602-3.071-8.56c-0.747-0.411-2.189,0.294-4.327,2.118c-3.791,3.213-7.567,6.158-12.634,6.605
				c-7.067,0.621-17.064-4.811-19.407-13.234c-2.363-8.487,3.159-21.155,14.811-23.708c12.84-2.813,32.064,7.898,35.965,29.218
				c4.407,24.092-12.616,53.562-34.109,62.639c-16.061,6.78-31.288,1.541-40.29-8.433c-18.577-20.589,1.898-48.933-28.081-67.073
				L1454.701,1121.397z M1437.551,1103.507c3.054,10.712-3.242,21.616-13.437,24.525c-10.321,2.939-21.477-3.116-24.567-13.582
				c-3.102-10.517,3.072-21.492,13.53-24.474C1423.596,1086.978,1434.539,1092.934,1437.551,1103.507z"/>
		</g>
	</g>
	<g>
		<g>
			<path d="M1479.588,1023.392c-16.082-4.123-27.758-3.471-42.021,1.325c-46.691,14.93-59.211-21.115-41.178-37.996
				c3.473-3.253,6.174-4.631,8.099-4.137c0.826,0.212,1.394,1.713,1.704,4.506c0.564,4.937,1.3,9.669,4.687,13.464
				c4.726,5.291,15.732,8.175,23.207,3.64c7.533-4.568,12.18-17.583,5.435-27.421c-7.433-10.84-28.779-16.195-46.218-3.325
				c-19.706,14.543-27.473,47.679-18.021,69.01c7.065,15.938,21.751,22.543,35.141,21.436c27.636-2.29,32.117-36.967,66.388-29.666
				L1479.588,1023.392z M1504.336,1022.093c-9.56,5.717-12.436,17.976-6.996,27.075c5.511,9.208,17.788,12.432,27.205,6.919
				c9.462-5.542,12.475-17.768,6.893-27.102C1525.824,1019.6,1513.77,1016.448,1504.336,1022.093z"/>
		</g>
		<g>
			<path d="M1508.222,955.446c16.082,4.123,26.004,10.312,36.201,21.378c33.75,35.552,62.067,9.976,54.38-13.498
				c-1.48-4.522-3.185-7.03-5.11-7.523c-0.826-0.212-2.047,0.831-3.662,3.13c-2.87,4.057-5.791,7.852-10.586,9.548
				c-6.688,2.365-17.725-0.402-22.096-7.974c-4.406-7.629-2.219-21.274,8.428-26.654c11.732-5.927,33.021-0.352,42.117,19.32
				c10.279,22.23,1.146,55.016-17.402,69.168c-13.861,10.573-29.914,9.298-41.12,1.886c-23.126-15.303-10.371-47.859-43.927-57.946
				L1508.222,955.446z M1487.151,942.401c5.63,9.611,2.254,21.742-6.893,27.102c-9.261,5.421-21.575,2.341-27.178-7.023
				c-5.628-9.411-2.388-21.579,6.996-27.075C1469.512,929.877,1481.596,932.913,1487.151,942.401z"/>
		</g>
	</g>
	<g>
		<g>
			<path d="M1507.781,854.311c-16.602,0-27.751,3.531-40.376,11.719c-41.521,26.057-62.6-5.75-49.324-26.58
				c2.557-4.013,4.831-6.019,6.818-6.019c0.852,0,1.776,1.313,2.77,3.942c1.773,4.643,3.66,9.044,7.883,11.878
				c5.892,3.952,17.27,4.013,23.384-2.237c6.162-6.296,7.432-20.056-1.545-27.911c-9.892-8.655-31.899-8.541-45.596,8.256
				c-15.477,18.981-14.773,53.008-0.32,71.323c10.801,13.684,26.668,16.436,39.364,12.038c26.202-9.081,21.931-43.785,56.941-45.222
				V854.311z M1531.431,846.907c-7.841,7.912-7.582,20.501-0.053,27.965c7.625,7.552,20.318,7.626,28.071-0.053
				c7.789-7.718,7.672-20.31-0.053-27.965C1551.627,839.155,1539.168,839.096,1531.431,846.907z"/>
		</g>
		<g>
			<path d="M1518.645,781.383c16.602,0,27.75,3.531,40.376,11.719c41.521,26.057,62.6-5.75,49.324-26.58
				c-2.557-4.013-4.831-6.019-6.818-6.019c-0.852,0-1.776,1.313-2.77,3.942c-1.773,4.643-3.66,9.044-7.883,11.878
				c-5.892,3.952-17.27,4.013-23.384-2.237c-6.162-6.296-7.432-20.056,1.545-27.911c9.892-8.655,31.899-8.541,45.596,8.256
				c15.477,18.981,14.773,53.008,0.32,71.323c-10.801,13.684-26.668,16.436-39.364,12.038
				c-26.202-9.081-21.931-43.785-56.941-45.222V781.383z M1494.995,773.979c7.841,7.912,7.582,20.501,0.053,27.965
				c-7.625,7.551-20.318,7.626-28.071-0.053c-7.789-7.718-7.672-20.31,0.053-27.965
				C1474.798,766.227,1487.258,766.168,1494.995,773.979z"/>
		</g>
	</g>
</g>
</svg>
